<?xml version="1.0" encoding="utf-8"?>
<!-- Generator: Adobe Illustrator 16.0.0, SVG Export Plug-In . SVG Version: 6.00 Build 0)  -->
<!DOCTYPE svg PUBLIC "-//W3C//DTD SVG 1.1//EN" "http://www.w3.org/Graphics/SVG/1.1/DTD/svg11.dtd">
<svg version="1.1" id="Layer_1" xmlns="http://www.w3.org/2000/svg" xmlns:xlink="http://www.w3.org/1999/xlink" x="0px" y="0px"
	 width="200px" height="200px" viewBox="0 0 200 200" enable-background="new 0 0 200 200" xml:space="preserve">
<path fill="#FFFFFF" d="M198.72,39.649c-7.29,3.233-15.125,5.419-23.348,6.398c8.393-5.029,14.839-12.996,17.873-22.488
	c-7.855,4.659-16.555,8.042-25.814,9.864c-7.414-7.902-17.979-12.837-29.672-12.837c-22.446,0-40.65,18.2-40.65,40.648
	c0,3.186,0.359,6.288,1.052,9.263C64.377,68.802,34.424,52.62,14.376,28.025c-3.5,6.002-5.503,12.986-5.503,20.436
	c0,14.103,7.175,26.546,18.083,33.834c-6.664-0.209-12.931-2.04-18.411-5.084c-0.003,0.17-0.003,0.34-0.003,0.511
	c0,19.696,14.012,36.124,32.608,39.859c-3.41,0.93-7.002,1.428-10.709,1.428c-2.619,0-5.166-0.256-7.648-0.73
	c5.173,16.148,20.186,27.903,37.973,28.229c-13.912,10.904-31.439,17.403-50.485,17.403c-3.281,0-6.516-0.193-9.697-0.567
	c17.989,11.531,39.357,18.264,62.313,18.264c74.771,0,115.659-61.942,115.659-115.66c0-1.763-0.04-3.515-0.118-5.26
	C186.38,54.96,193.27,47.799,198.72,39.649z"/>
</svg>
